<svg xmlns="http://www.w3.org/2000/svg" version="1.1" xmlns:xlink="http://www.w3.org/1999/xlink" width="1000" height="1000"><g clip-path="url(#SvgjsClipPath1047)"><rect width="1000" height="1000" fill="#f4eddf"></rect><g transform="matrix(3.389830508474576,0,0,3.389830508474576,150.84745762711867,100)"><svg xmlns="http://www.w3.org/2000/svg" version="1.1" xmlns:xlink="http://www.w3.org/1999/xlink" width="206" height="236"><svg width="206" height="236" viewBox="0 0 206 236" fill="none" xmlns="http://www.w3.org/2000/svg">
<path d="M115.3 13.0783C137.787 16.5931 157.931 27.1768 173.388 42.4855L178.3 34.3H197.3V78.5647C202.138 90.7001 204.8 103.939 204.8 117.8C204.8 131.661 202.138 144.899 197.3 157.034V202.3H178.3L173.011 193.486C157.604 208.594 137.605 219.034 115.3 222.521V235.3H82.3V222.523C59.9947 219.036 39.995 208.594 24.5881 193.486L19.3 202.3H0.300049V161.3H18.8518C34.2819 189.599 64.2983 208.8 98.8 208.8C149.058 208.8 189.8 168.058 189.8 117.8C189.8 67.5421 149.058 26.8 98.8 26.8C63.8934 26.8 33.5781 46.4544 18.3147 75.3H0.300049V34.3H19.3L24.2112 42.4846C39.6681 27.1757 59.8126 16.5921 82.3 13.0773V0.300003H115.3V13.0783Z" fill="url(#paint0_linear_3_33)"></path>
<path fill-rule="evenodd" clip-rule="evenodd" d="M91.4641 72.1838H101.227V52.3H113.653V72.6252C129.628 73.9508 142.054 78.8118 142.942 92.9514C143.829 103.998 139.392 110.184 132.291 113.719C144.273 116.812 151.817 123.882 150.042 139.347C148.267 158.788 133.622 164.091 112.765 164.975V185.3H100.34V164.975H90.5764V185.3H78.1516V164.975H53.7405V150.393H64.8381C67.5008 150.835 69.72 148.626 69.72 146.416V91.1838C69.2762 87.649 66.1695 85.4393 62.6194 85.8811H53.7434V72.6252H79.0383V52.3H91.4641V72.1838ZM126.078 137.137C126.078 121.23 99.8957 123.44 91.4641 123.44V150.393C99.8958 150.393 126.078 152.602 126.078 137.137ZM91.4641 110.625C98.1207 111.067 120.31 112.835 120.31 98.6955C120.31 84.556 98.5644 86.3229 91.4641 85.8811V110.625Z" fill="url(#paint1_linear_3_33)"></path>
<path d="M16.8 81.3C16.8 81.3 13.3 86.3 13.3 94.8V142.3C13.3 149.3 15.8 155.3 15.8 155.3H0.300049V81.3H16.8Z" fill="url(#paint2_linear_3_33)"></path>
<path d="M115.3 13.0783C137.787 16.5931 157.931 27.1768 173.388 42.4855L178.3 34.3H197.3V78.5647C202.138 90.7001 204.8 103.939 204.8 117.8C204.8 131.661 202.138 144.899 197.3 157.034V202.3H178.3L173.011 193.486C157.604 208.594 137.605 219.034 115.3 222.521V235.3H82.3V222.523C59.9947 219.036 39.995 208.594 24.5881 193.486L19.3 202.3H0.300049V161.3H18.8518C34.2819 189.599 64.2983 208.8 98.8 208.8C149.058 208.8 189.8 168.058 189.8 117.8C189.8 67.5421 149.058 26.8 98.8 26.8C63.8934 26.8 33.5781 46.4544 18.3147 75.3H0.300049V34.3H19.3L24.2112 42.4846C39.6681 27.1757 59.8126 16.5921 82.3 13.0773V0.300003H115.3V13.0783Z" stroke="#EDD5A5" stroke-width="0.6"></path>
<path fill-rule="evenodd" clip-rule="evenodd" d="M91.4641 72.1838H101.227V52.3H113.653V72.6252C129.628 73.9508 142.054 78.8118 142.942 92.9514C143.829 103.998 139.392 110.184 132.291 113.719C144.273 116.812 151.817 123.882 150.042 139.347C148.267 158.788 133.622 164.091 112.765 164.975V185.3H100.34V164.975H90.5764V185.3H78.1516V164.975H53.7405V150.393H64.8381C67.5008 150.835 69.72 148.626 69.72 146.416V91.1838C69.2762 87.649 66.1695 85.4393 62.6194 85.8811H53.7434V72.6252H79.0383V52.3H91.4641V72.1838ZM126.078 137.137C126.078 121.23 99.8957 123.44 91.4641 123.44V150.393C99.8958 150.393 126.078 152.602 126.078 137.137ZM91.4641 110.625C98.1207 111.067 120.31 112.835 120.31 98.6955C120.31 84.556 98.5644 86.3229 91.4641 85.8811V110.625Z" stroke="#EDD5A5" stroke-width="0.6"></path>
<path d="M16.8 81.3C16.8 81.3 13.3 86.3 13.3 94.8V142.3C13.3 149.3 15.8 155.3 15.8 155.3H0.300049V81.3H16.8Z" stroke="#EDD5A5" stroke-width="0.6"></path>
<defs>
<linearGradient id="paint0_linear_3_33" x1="204.3" y1="30.8" x2="-5.19996" y2="213.8" gradientUnits="userSpaceOnUse">
<stop stop-color="#C8A659"></stop>
<stop offset="1" stop-color="#916024"></stop>
</linearGradient>
<linearGradient id="paint1_linear_3_33" x1="204.3" y1="30.8" x2="-5.19996" y2="213.8" gradientUnits="userSpaceOnUse">
<stop stop-color="#C8A659"></stop>
<stop offset="1" stop-color="#916024"></stop>
</linearGradient>
<linearGradient id="paint2_linear_3_33" x1="204.3" y1="30.8" x2="-5.19996" y2="213.8" gradientUnits="userSpaceOnUse">
<stop stop-color="#C8A659"></stop>
<stop offset="1" stop-color="#916024"></stop>
</linearGradient>
<clipPath id="SvgjsClipPath1047"><rect width="1000" height="1000" x="0" y="0" rx="350" ry="350"></rect></clipPath></defs>
</svg></svg></g></g></svg>